<svg xmlns="http://www.w3.org/2000/svg" xmlns:xlink="http://www.w3.org/1999/xlink" viewBox="0 0 1607.85 393.35"><defs><style>.cls-1,.cls-4{fill:none;}.cls-2{clip-path:url(#clip-path);}.cls-3{fill:#1a237e;}.cls-4{stroke:#fff;stroke-miterlimit:10;stroke-width:13.13px;}</style><clipPath id="clip-path"><path class="cls-1" d="M36.85,134.11A138.66,138.66,0,1,0,151.4,73.79,138.69,138.69,0,0,0,36.85,134.11"/></clipPath></defs><title>nevermined_logo_1</title><g id="Layer_2" data-name="Layer 2"><g id="Layer_1-2" data-name="Layer 1"><g class="cls-2"><path class="cls-3" d="M72.87,326.92a138.7,138.7,0,1,0-36-192.81,138.7,138.7,0,0,0,36,192.81"/><polygon class="cls-4" points="118.46 380.67 126.32 369.2 27.98 182.57 27.94 182.49 243.15 329.95 251.38 317.94 115.29 13.38 107.13 25.28 233.51 308.35 233.54 308.43 15.49 159.02 7.65 170.47 118.46 380.67"/></g><path class="cls-3" d="M520.84,224.68V283.4H500.31V224.68c0-17.9-14.32-32.7-32.22-32.7-17.66,0-32.22,14.8-32.22,32.7V283.4H415.34V174.08h20.53v10.5c9.31-7.16,20.52-12.65,32.22-12.65a52.5,52.5,0,0,1,37.47,15.27A53.11,53.11,0,0,1,520.84,224.68Z"/><path class="cls-3" d="M644.25,233.75H560v.48c2.38,18.14,16,31.74,31.74,32,9.79-.48,19.82-4.53,26.74-11.46L635.65,265a64.65,64.65,0,0,1-14.56,12.17c-8.35,5-18.61,7.64-28.88,8.12a49,49,0,0,1-37-16.71,56.41,56.41,0,0,1-14.8-34.37,36.68,36.68,0,0,1-.23-5,59,59,0,0,1,1.43-12.89,57.53,57.53,0,0,1,13.6-26.49,50,50,0,0,1,37-16.47,50.48,50.48,0,0,1,37.24,16.47,55.35,55.35,0,0,1,13.6,26.49C644.72,226.11,644.48,231.6,644.25,233.75Zm-21.49-17.19-.24-.47c-4.77-14.09-16.94-23.64-30.31-23.64-13.13,0-25.3,9.55-30.31,23.64l-.24.47Z"/><path class="cls-3" d="M759.53,174.08,715.14,283.4h-22.2l-44.4-109.32h22.2l33.42,82.11,33.18-82.11Z"/><path class="cls-3" d="M871.48,233.75H787.22v.48c2.39,18.14,16,31.74,31.75,32,9.78-.48,19.81-4.53,26.73-11.46L862.89,265a64.87,64.87,0,0,1-14.56,12.17c-8.36,5-18.62,7.64-28.89,8.12a48.92,48.92,0,0,1-37-16.71,56.3,56.3,0,0,1-14.8-34.37,35.17,35.17,0,0,1-.24-5,59.62,59.62,0,0,1,1.43-12.89,57.45,57.45,0,0,1,13.61-26.49,49.92,49.92,0,0,1,37-16.47,50.46,50.46,0,0,1,37.24,16.47,55.37,55.37,0,0,1,13.61,26.49C872,226.11,871.72,231.6,871.48,233.75ZM850,216.56l-.24-.47c-4.78-14.09-17-23.64-30.32-23.64-13.12,0-25.3,9.55-30.31,23.64l-.24.47Z"/><path class="cls-3" d="M913.25,185.29c6.92-7.63,27.21-13.6,39.86-13.6l-5,20.53c-19.09,0-34.85,14.56-34.85,32.94V283.4H892.72V174.08h20.53Z"/><path class="cls-3" d="M1163.16,224.68V283.4h-20.53V224.68c0-17.9-14.56-32.7-32.22-32.7a32.7,32.7,0,0,0-32.46,32.7V283.4h-20.53V224.68c0-17.9-14.32-32.7-32.22-32.7-17.67,0-32.23,14.8-32.23,32.7V283.4H972.45V174.08H993v10.5c9.31-7.16,20.53-12.65,32.23-12.65,14.08,0,27.45,6.2,37.47,16.23a39.53,39.53,0,0,1,5,6,62.26,62.26,0,0,1,5.25-6c10-10,23.39-16.23,37.47-16.23a52.55,52.55,0,0,1,52.75,52.75Z"/><path class="cls-3" d="M1189.66,142.81a13.49,13.49,0,0,1,27,0,13.49,13.49,0,1,1-27,0Zm3.34,31.27h20.53V283.4H1193Z"/><path class="cls-3" d="M1354.83,224.68V283.4h-20.52V224.68c0-17.9-14.33-32.7-32.23-32.7-17.66,0-32.22,14.8-32.22,32.7V283.4h-20.53V174.08h20.53v10.5c9.31-7.16,20.53-12.65,32.22-12.65a52.54,52.54,0,0,1,37.48,15.27A53.14,53.14,0,0,1,1354.83,224.68Z"/><path class="cls-3" d="M1478.24,233.75H1394v.48c2.39,18.14,16,31.74,31.75,32,9.78-.48,19.81-4.53,26.73-11.46L1469.64,265a64.65,64.65,0,0,1-14.56,12.17c-8.35,5-18.61,7.64-28.88,8.12a49,49,0,0,1-37-16.71,56.34,56.34,0,0,1-14.79-34.37,35.17,35.17,0,0,1-.24-5,59,59,0,0,1,1.43-12.89,57.53,57.53,0,0,1,13.6-26.49,50,50,0,0,1,37-16.47,50.48,50.48,0,0,1,37.24,16.47,55.35,55.35,0,0,1,13.6,26.49C1478.71,226.11,1478.48,231.6,1478.24,233.75Zm-21.49-17.19-.23-.47c-4.78-14.09-17-23.64-30.32-23.64-13.13,0-25.3,9.55-30.31,23.64l-.24.47Z"/><path class="cls-3" d="M1587.32,108.2h20.53V283.4h-20.53V270.75c-10.26,8.59-23.15,15-36.76,15a57,57,0,1,1,0-114.09c13.61,0,26.5,6.44,36.76,15Zm0,120.54a36.76,36.76,0,1,0-36.76,37A37,37,0,0,0,1587.32,228.74Z"/></g></g></svg>